<mxfile host="65bd71144e">
    <diagram id="iy2RaUVlpPvX19TbnUEA" name="Page-1">
        <mxGraphModel dx="675" dy="557" grid="0" gridSize="10" guides="1" tooltips="1" connect="1" arrows="1" fold="1" page="1" pageScale="1" pageWidth="827" pageHeight="1169" math="0" shadow="0">
            <root>
                <mxCell id="0"/>
                <mxCell id="1" parent="0"/>
                <mxCell id="2" value="AWS Cloud" style="points=[[0,0],[0.25,0],[0.5,0],[0.75,0],[1,0],[1,0.25],[1,0.5],[1,0.75],[1,1],[0.75,1],[0.5,1],[0.25,1],[0,1],[0,0.75],[0,0.5],[0,0.25]];outlineConnect=0;gradientColor=none;html=1;whiteSpace=wrap;fontSize=12;fontStyle=0;container=1;pointerEvents=0;collapsible=0;recursiveResize=0;shape=mxgraph.aws4.group;grIcon=mxgraph.aws4.group_aws_cloud;strokeColor=#232F3E;fillColor=none;verticalAlign=top;align=left;spacingLeft=30;fontColor=#232F3E;dashed=0;" parent="1" vertex="1">
                    <mxGeometry x="140" y="160" width="530" height="310" as="geometry"/>
                </mxCell>
                <mxCell id="7" style="edgeStyle=none;html=1;entryX=0;entryY=0.5;entryDx=0;entryDy=0;entryPerimeter=0;" parent="2" source="4" target="6" edge="1">
                    <mxGeometry relative="1" as="geometry"/>
                </mxCell>
                <mxCell id="4" value="API Gateway" style="sketch=0;points=[[0,0,0],[0.25,0,0],[0.5,0,0],[0.75,0,0],[1,0,0],[0,1,0],[0.25,1,0],[0.5,1,0],[0.75,1,0],[1,1,0],[0,0.25,0],[0,0.5,0],[0,0.75,0],[1,0.25,0],[1,0.5,0],[1,0.75,0]];outlineConnect=0;fontColor=#232F3E;gradientColor=#945DF2;gradientDirection=north;fillColor=#5A30B5;strokeColor=#ffffff;dashed=0;verticalLabelPosition=bottom;verticalAlign=top;align=center;html=1;fontSize=12;fontStyle=0;aspect=fixed;shape=mxgraph.aws4.resourceIcon;resIcon=mxgraph.aws4.api_gateway;" parent="2" vertex="1">
                    <mxGeometry x="130" y="80" width="78" height="78" as="geometry"/>
                </mxCell>
                <mxCell id="13" style="edgeStyle=orthogonalEdgeStyle;curved=1;html=1;entryX=0;entryY=0.5;entryDx=0;entryDy=0;entryPerimeter=0;elbow=vertical;startArrow=classic;startFill=1;" parent="2" source="6" target="12" edge="1">
                    <mxGeometry relative="1" as="geometry"/>
                </mxCell>
                <mxCell id="6" value="Lambda" style="sketch=0;points=[[0,0,0],[0.25,0,0],[0.5,0,0],[0.75,0,0],[1,0,0],[0,1,0],[0.25,1,0],[0.5,1,0],[0.75,1,0],[1,1,0],[0,0.25,0],[0,0.5,0],[0,0.75,0],[1,0.25,0],[1,0.5,0],[1,0.75,0]];outlineConnect=0;fontColor=#232F3E;gradientColor=#F78E04;gradientDirection=north;fillColor=#D05C17;strokeColor=#ffffff;dashed=0;verticalLabelPosition=bottom;verticalAlign=top;align=center;html=1;fontSize=12;fontStyle=0;aspect=fixed;shape=mxgraph.aws4.resourceIcon;resIcon=mxgraph.aws4.lambda;" parent="2" vertex="1">
                    <mxGeometry x="260" y="80" width="78" height="78" as="geometry"/>
                </mxCell>
                <mxCell id="12" value="DynamoDB" style="sketch=0;points=[[0,0,0],[0.25,0,0],[0.5,0,0],[0.75,0,0],[1,0,0],[0,1,0],[0.25,1,0],[0.5,1,0],[0.75,1,0],[1,1,0],[0,0.25,0],[0,0.5,0],[0,0.75,0],[1,0.25,0],[1,0.5,0],[1,0.75,0]];outlineConnect=0;fontColor=#232F3E;gradientColor=#4D72F3;gradientDirection=north;fillColor=#3334B9;strokeColor=#ffffff;dashed=0;verticalLabelPosition=bottom;verticalAlign=top;align=center;html=1;fontSize=12;fontStyle=0;aspect=fixed;shape=mxgraph.aws4.resourceIcon;resIcon=mxgraph.aws4.dynamodb;" parent="2" vertex="1">
                    <mxGeometry x="400" y="80" width="78" height="78" as="geometry"/>
                </mxCell>
                <mxCell id="14" value="S3&lt;br&gt;Static WebSite" style="sketch=0;outlineConnect=0;fontColor=#232F3E;gradientColor=none;fillColor=#3F8624;strokeColor=none;dashed=0;verticalLabelPosition=bottom;verticalAlign=top;align=center;html=1;fontSize=12;fontStyle=0;aspect=fixed;pointerEvents=1;shape=mxgraph.aws4.bucket_with_objects;" parent="2" vertex="1">
                    <mxGeometry x="132" y="190" width="75" height="78" as="geometry"/>
                </mxCell>
                <mxCell id="21" value="" style="shape=image;verticalLabelPosition=bottom;labelBackgroundColor=#ffffff;verticalAlign=top;aspect=fixed;imageAspect=0;image=data:image/png,iVBORw0KGgoAAAANSUhEUgAAAUoAAAE2CAYAAAAHydu/AAAMPWlDQ1BJQ0MgUHJvZmlsZQAASImVVwdYU8kWnluSkEBoAQSkhN4E6QSQEkILvSPYCEmAUEIMBBU7uqjg2sUCNnRVRMEKiB2xswg27IsFFWVdLNiVNymg677yvZNv7v3zz5n/nDl3bhkA1E5yRKJcVB2APGGhOC4kgD42JZVOegoQ+NMGVEDhcAtEzJiYCABt6Px3e3cD+kK7ai/V+mf/fzUNHr+ACwASA3E6r4CbB/FBAPAqrkhcCABRyptNKRRJMWxASwwThHihFGfKcZUUp8vxXplPQhwL4lYAlFQ4HHEmAKodkKcXcTOhhmo/xI5CnkAIgBodYt+8vHwexGkQW0MfEcRSfUb6DzqZf9NMH9bkcDKHsXwuMlMKFBSIcjnT/s9y/G/Ly5UMxbCETSVLHBonnTOs282c/HApVoG4T5geFQ2xJsQfBDyZP8QoJUsSmij3Rw24BSxYM6ADsSOPExgOsQHEwcLcqAgFn54hCGZDDFcIOlVQyE6AWBfihfyCoHiFz2ZxfpwiFtqQIWYxFfx5jlgWVxrrviQnkanQf53FZyv0MdXirIRkiCkQmxcJkqIgVoXYoSAnPlzhM6Y4ixU15COWxEnzN4c4ji8MCZDrY0UZ4uA4hX9ZXsHQfLHNWQJ2lALvL8xKCJXXB2vlcmT5w7lgHXwhM3FIh18wNmJoLjx+YJB87tgzvjAxXqHzQVQYECcfi1NEuTEKf9yUnxsi5U0hdi0oileMxZMK4YKU6+MZosKYBHmeeHE2JyxGng++DEQAFggEdCCBLR3kg2wgaO9r7IP/5D3BgAPEIBPwgb2CGRqRLOsRwmM8KAZ/QsQHBcPjAmS9fFAE+a/DrPxoDzJkvUWyETngCcR5IBzkwv8S2SjhcLQk8Bgygn9E58DGhfnmwibt//f8EPudYUImQsFIhiLS1YY8iUHEQGIoMZhog+vjvrg3HgGP/rA54wzcc2ge3/0JTwidhIeE64Ruwq1JghLxT1lGgm6oH6yoRfqPtcAtoaYbHoD7QHWojOvg+sAed4VxmLgfjOwGWZYib2lV6D9p/20GP1wNhR/ZkYySR5D9ydY/j1S1VXUbVpHW+sf6yHNNH643a7jn5/isH6rPg+fwnz2xhdgB7Bx2CruAHcUaAR07gTVhbdgxKR5eXY9lq2soWpwsnxyoI/hHvKErK61kgWOtY6/jF3lfIX+q9BkNWPmiaWJBZlYhnQnfCHw6W8h1GEV3dnR2AUD6fpE/vt7Eyt4biE7bd27eHwD4nBgcHDzynQs7AcA+D3j7H/7OWTPgq0MZgPOHuRJxkZzDpQcCfEqowTtNDxgBM2AN5+MM3IE38AdBIAxEgwSQAibC7LPgOheDKWAGmAtKQTlYBlaD9WAT2Ap2gj1gP2gER8EpcBZcAh3gOrgDV08PeAH6wTvwGUEQEkJFaIgeYoxYIHaIM8JAfJEgJAKJQ1KQNCQTESISZAYyDylHViDrkS1IDbIPOYycQi4gncgt5AHSi7xGPqEYqoJqoYaoJToaZaBMNBxNQCegmehktBidjy5B16LV6G60AT2FXkKvo93oC3QAA5gypoOZYPYYA2Nh0VgqloGJsVlYGVaBVWN1WDO8zlexbqwP+4gTcRpOx+3hCg7FE3EuPhmfhS/G1+M78Qa8Fb+KP8D78W8EKsGAYEfwIrAJYwmZhCmEUkIFYTvhEOEMvJd6CO+IRKIO0YroAe/FFGI2cTpxMXEDsZ54kthJfEQcIJFIeiQ7kg8pmsQhFZJKSetIu0knSFdIPaQPSspKxkrOSsFKqUpCpRKlCqVdSseVrig9VfpMVidbkL3I0WQeeRp5KXkbuZl8mdxD/kzRoFhRfCgJlGzKXMpaSh3lDOUu5Y2ysrKpsqdyrLJAeY7yWuW9yueVHyh/VNFUsVVhqYxXkagsUdmhclLllsobKpVqSfWnplILqUuoNdTT1PvUD6o0VQdVtipPdbZqpWqD6hXVl2pkNQs1ptpEtWK1CrUDapfV+tTJ6pbqLHWO+iz1SvXD6l3qAxo0DSeNaI08jcUauzQuaDzTJGlaagZp8jTna27VPK35iIbRzGgsGpc2j7aNdobWo0XUstJia2VrlWvt0WrX6tfW1HbVTtKeql2pfUy7WwfTsdRh6+TqLNXZr3ND59MIwxHMEfwRi0bUjbgy4r3uSF1/Xb5umW697nXdT3p0vSC9HL3leo169/RxfVv9WP0p+hv1z+j3jdQa6T2SO7Js5P6Rtw1QA1uDOIPpBlsN2gwGDI0MQwxFhusMTxv2GekY+RtlG60yOm7Ua0wz9jUWGK8yPmH8nK5NZ9Jz6WvprfR+EwOTUBOJyRaTdpPPplamiaYlpvWm98woZgyzDLNVZi1m/ebG5pHmM8xrzW9bkC0YFlkWayzOWby3tLJMtlxg2Wj5zErXim1VbFVrddeaau1nPdm62vqaDdGGYZNjs8Gmwxa1dbPNsq20vWyH2rnbCew22HWOIozyHCUcVT2qy17FnmlfZF9r/8BBxyHCocSh0eHlaPPRqaOXjz43+pujm2Ou4zbHO06aTmFOJU7NTq+dbZ25zpXO11yoLsEus12aXF652rnyXTe63nSjuUW6LXBrcfvq7uEudq9z7/Uw90jzqPLoYmgxYhiLGec9CZ4BnrM9j3p+9HL3KvTa7/WXt713jvcu72djrMbwx2wb88jH1Ifjs8Wn25fum+a72bfbz8SP41ft99DfzJ/nv93/KdOGmc3czXwZ4BggDjgU8J7lxZrJOhmIBYYElgW2B2kGJQatD7ofbBqcGVwb3B/iFjI95GQoITQ8dHloF9uQzWXXsPvDPMJmhrWGq4THh68PfxhhGyGOaI5EI8MiV0bejbKIEkY1RoNodvTK6HsxVjGTY47EEmNjYitjn8Q5xc2IOxdPi58Uvyv+XUJAwtKEO4nWiZLEliS1pPFJNUnvkwOTVyR3jx09dubYSyn6KYKUplRSalLq9tSBcUHjVo/rGe82vnT8jQlWE6ZOuDBRf2LuxGOT1CZxJh1II6Qlp+1K+8KJ5lRzBtLZ6VXp/VwWdw33Bc+ft4rXy/fhr+A/zfDJWJHxLNMnc2Vmb5ZfVkVWn4AlWC94lR2avSn7fU50zo6cwdzk3Po8pby0vMNCTWGOsDXfKH9qfqfITlQq6p7sNXn15H5xuHh7AVIwoaCpUAt+yLdJrCW/SB4U+RZVFn2YkjTlwFSNqcKpbdNspy2a9rQ4uPi36fh07vSWGSYz5s54MJM5c8ssZFb6rJbZZrPnz+6ZEzJn51zK3Jy5v5c4lqwoeTsveV7zfMP5c+Y/+iXkl9pS1VJxadcC7wWbFuILBQvbF7ksWrfoWxmv7GK5Y3lF+ZfF3MUXf3X6de2vg0sylrQvdV+6cRlxmXDZjeV+y3eu0FhRvOLRysiVDavoq8pWvV09afWFCteKTWsoayRrutdGrG1aZ75u2bov67PWX68MqKyvMqhaVPV+A2/DlY3+G+s2GW4q3/Rps2DzzS0hWxqqLasrthK3Fm19si1p27nfGL/VbNffXr796w7hju6dcTtbazxqanYZ7Fpai9ZKant3j9/dsSdwT1Odfd2Wep368r1gr2Tv831p+27sD9/fcoBxoO6gxcGqQ7RDZQ1Iw7SG/sasxu6mlKbOw2GHW5q9mw8dcTiy46jJ0cpj2seWHqccn3988ETxiYGTopN9pzJPPWqZ1HLn9NjT11pjW9vPhJ85fzb47OlzzHMnzvucP3rB68Lhi4yLjZfcLzW0ubUd+t3t90Pt7u0Nlz0uN3V4djR3juk8fsXvyqmrgVfPXmNfu3Q96nrnjcQbN7vGd3Xf5N18div31qvbRbc/35lzl3C37J76vYr7Bver/7D5o77bvfvYg8AHbQ/jH955xH304nHB4y89859Qn1Q8NX5a88z52dHe4N6O5+Oe97wQvfjcV/qnxp9VL61fHvzL/6+2/rH9Pa/ErwZfL36j92bHW9e3LQMxA/ff5b37/L7sg96HnR8ZH899Sv709POUL6Qva7/afG3+Fv7t7mDe4KCII+bIPgUw2NCMDABe7wCAmgIADe7PKOPk+z+ZIfI9qwyB/4Tle0SZuQNQB7/fY/vg100XAHu3we0X1FcbD0AMFYAET4C6uAy3ob2abF8pNSLcB2yO+5qelw7+jcn3nD/k/fMZSFVdwc/nfwFDL3w6vaTD8AAAAIplWElmTU0AKgAAAAgABAEaAAUAAAABAAAAPgEbAAUAAAABAAAARgEoAAMAAAABAAIAAIdpAAQAAAABAAAATgAAAAAAAACQAAAAAQAAAJAAAAABAAOShgAHAAAAEgAAAHigAgAEAAAAAQAAAUqgAwAEAAAAAQAAATYAAAAAQVNDSUkAAABTY3JlZW5zaG90TfYOFwAAAAlwSFlzAAAWJQAAFiUBSVIk8AAAAdZpVFh0WE1MOmNvbS5hZG9iZS54bXAAAAAAADx4OnhtcG1ldGEgeG1sbnM6eD0iYWRvYmU6bnM6bWV0YS8iIHg6eG1wdGs9IlhNUCBDb3JlIDYuMC4wIj4KICAgPHJkZjpSREYgeG1sbnM6cmRmPSJodHRwOi8vd3d3LnczLm9yZy8xOTk5LzAyLzIyLXJkZi1zeW50YXgtbnMjIj4KICAgICAgPHJkZjpEZXNjcmlwdGlvbiByZGY6YWJvdXQ9IiIKICAgICAgICAgICAgeG1sbnM6ZXhpZj0iaHR0cDovL25zLmFkb2JlLmNvbS9leGlmLzEuMC8iPgogICAgICAgICA8ZXhpZjpQaXhlbFlEaW1lbnNpb24+MzEwPC9leGlmOlBpeGVsWURpbWVuc2lvbj4KICAgICAgICAgPGV4aWY6UGl4ZWxYRGltZW5zaW9uPjMzMDwvZXhpZjpQaXhlbFhEaW1lbnNpb24+CiAgICAgICAgIDxleGlmOlVzZXJDb21tZW50PlNjcmVlbnNob3Q8L2V4aWY6VXNlckNvbW1lbnQ+CiAgICAgIDwvcmRmOkRlc2NyaXB0aW9uPgogICA8L3JkZjpSREY+CjwveDp4bXBtZXRhPgqrUszmAAAAHGlET1QAAAACAAAAAAAAAJsAAAAoAAAAmwAAAJsAACV/5QWHMgAAJUtJREFUeAHsXQmUFMUZbjyQS0BBlPsQDxYF5BC5EZdLcNcICghBLhciyC1CAB+LiiiwyC0sC4JIRNxd5BbkEggGBCVKUEFAMBo5ooRAoibp1Ld53amqntmeo/85dv56b9/M9lF/1Vfd31TVfxUyRTG4MAKMACPACPhFoBATpV9s+AQjwAgwAnkIMFHyg8AIMAKMgAsCTJQuAPFpRoARYASYKPkZYAQYAUbABQEmSheA+DQjwAgwAkyU/AwwAowAI+CCABOlC0B8mhFgBBgBJkp+BhgBRoARcEGAidIFID7NCDACjAATJT8DjAAjwAi4IMBE6QIQn2YEGAFGgImSnwFGgBFgBFwQYKJ0AYhPMwKMACPARMnPACPACDACLggwUboAxKcZAUaAEWCi5GeAEWAEGAEXBJgoXQDi04wAI8AIMFHyM8AIMAKMgAsCTJQuAPFpRoARYASYKPkZYAQYAUbABQEmSheA+DQjwAgwAkyU/AwwAowAI+CCABOlC0B8mhFgBBgBJkp+BhgBRoARcEGAidIFID7NCDACjAATJT8DjAAjwAi4IMBE6QIQn2YEGAFGgImSnwFGgBFgBFwQYKJ0AYhPMwKMACPARMnPACPACDACLggwUboAxKcZAUaAEWCi5GeAEWAEGAEXBJgoXQDi094h8K9//cv45z//6V2FWk3XXnutUbhwYaNQoULaGf6XEQgPASbK8PDjuwNE4KuvvjLefPNN4+DBg2REVrlyZePWW281hg8fHmCr+DJGIDAEmCgDw4mvCgOBX8RMctzYscasWbMMzCopC2aU69evN9q2bUsphutOMASYKBNswKPR3R07dhgPPfSQcfny5YiI79Chg7F69WqjRIkSEZHHQgo+AkyUBX+Mo97D1NRUY926dYZpmnltueqqq4xrrrnG/j/cBqK+n376ya6mSJEixpw5c4z+/fuTLfNtYfwlIRBgokyIYY5eJ0eNGmVkZGTYDShevLgxYsQIo1WrVvYxL76sWLHCWLZsmV1VjRo1jKNHj+Ypd+yD/IURCBEBJsoQgePb3BH4/vvvjdtuu824dOmSffGDnToZG8Qeotdl83vvGY/36GH88MMPdtV16tUzPjl0iGeVNiL8JVQEmChDRY7vyxeBK1euGE8NHmwsF7M8a8mNG5o1b27kZGcb5cqVy/f+UE6OGzfOmDp1qnLr1q1bjeTkZOUY/8MIBIsAE2WwiPH1ASGwe/du45FHHjHOnz+vXF+0aNG8/cN+/fp5PtM7e+6cUbVKFcVWEyQJsyQKYlY6xv8UaASYKAv08Eanc5hBVqpUyfj22299NqBUqVLGZ0eOGJUqVvR5PpyD33zzjVFFkKU8i128eHGeYiecevnexEaAiTKxx5+k95mZmUZaWppd99VXX503e5RtKEeOHGnMmDHDvsarLyDILl27Grk5OXaVN954Y55ih2eVNiT8JUgEmCiDBIwvzx+BI2Km2KxZM+PixYv2hU2aNDEqitljjiCv//znP/bxNWvWGDAd8rocPnzY6Natm/HFF1/YVeP/t956y/6fvzACwSDARBkMWnxtvghgNterVy9j5cqVynXYpyxWrJhRtWpV45zYR7RKw4YNjb1795KY8AwYMMDIysqyRBnwA9+0aZPxwAMP2Mf4CyMQMALi4ebCCHiCwIYNG8wyZcrAqtz+mzx5sl23UKqYImCFfU4syc3nn3/eFEty+xqvvgitu1m9enVbFtpUv35988yZM16J4HoSCAFsenNhBDxBoGnTpgoRtm/f3vzHP/6h1N1/wACFvGrWrGkKBYxyjVf/CM27Ikt4A5kzM2aa//73v70SwfUkCAJMlAky0NTdnDdvngkismaTha+7znxjxQqH2A8//NAsWbKkfR2uF/uHjuu8OiBsKxVZpUvfYJ47d96r6rmeBEGAiTJBBpqym8JVUCEjkJ/Yq/S5pBbKnLzltkyquH7b9u0kTTxw4IAp9kbt9gm/cFP4gJtoBxdGIFAEmCgDRYqv84nA3//+d7OnIEVrJml9/vGPf/R5PQ6ePn3aFHaWyj21a9c2v/vuO7/3hHoCy2zsg2I/1GobPletWhVqlXxfAiLARJmAg+5ll0U4M/M6scyWSWj16ndcRWCmJ9+Dmd6UKVNc7wvlAhFV3bHcFyZM5oULF0Kpju9JQASYKBNw0L3qMgjo/vvvVxQ4jRo1Mn/++eeARHTq1FkhSyyRP//884DuDfYizHCvufZaWx6ImUrjHmzb+PrYR4CJMvbHKGZbmJ6ebhMPZoc33XSTuWXLloDbe+zYMVNEF1Lq6N69e8D3B3vhsGHDbFkwUxKh2Mg07sG2ja+PbQSYKGN7fGK2dSA5EeDCJh4Q5cMPPxzwbBIdw/7hmDFjlBkpCGzT5s0k/RZeQ2atWrWUNougGSSyuNKChQATZcEaz4j0Bgqcdu3aKYSDfcpQ7CF//PFHs1ZSklIXluAUih2Ag+W2rHGHkkfk2IkIbiwkfhFgoozfsYtKy2FWI3y2TRFoQiG3BQsWhNyebFGfrNgBeU2YMMH85ZdfQq7T340g5hq33qrIg8b95MmT/m7h44yAyUTJD0FQCGA2WauWOgPs2LFj2HaJTz/9tEJecIX89NNPg2pboBefOnVKkYUZ5rRp08LuQ6Dy+br4Q4CJMv7GLKotzhAugLJNYunSpU0RRTzsNh0/ftysqNlWPvHEE2HX668CEeZN2RsVIdjMP/3pT/4u5+MJjgATZYI/AMF0X2RSVGZiULyAzGAmFG6BYgd2lCLKjyJjyZIl4Vbt834Qc7169WxZ6EuXLl18XssHGQEmSn4GAkIAZNjWhwJHJBAL6P5ALhKJwcw77rjDJi/sW1arVo3EMBzEPGnSJEWxgyX4G2+8EUhT+ZoEQ4CJMsEGPJTuQoEj0imYRYr83xwIM7DXX389lOryvWfXrl0mjMEt5Q7kDBkyJCizo3wFSCfRr3vuuceWBZmw66TSuEui+WucIcBEGWcDFo3mQlPcuHFjZU8vJSWVrCmDBg1SyEvkwDHz8x0PpyGIZiTvuWJWOX78ePOnn34Kp1q+t4AhwERZwAaUojspqakKcUEjvZ0o2g/aD630rZoJD3yzqcr06dOV/sH0icqVkqoPXC8tAkyUtPjGfe3QBFvLYOuzbdu2ppd7k75Amj17tkOxE4x7pK86/R0TuXXM6sKd0eofPmuKJThF5HV/beDjsY0AE2Vsj09UW4foOq1atVIIBCSCGeXOnTtJ2yZy65gNGjRQZJcpW9aEtpqiYA9W5PVR5C3OyqIQxXXGIQJMlHE4aJFqMkxzdH9ua9bV6N57yZtx8OBBhbig5Hl27FgSw/BLly45/MCh2Dlx4gR5P1lA7CPARBn7YxSVFp4+fSYvGpBFjL4+s7NzyNvWp29fhSyLFy9u7tixg0Tut99+q5gLoc+IOEThSknSAa6UDAEmSjJo47visWLmJpPjjWK5jWAV8rHChQuTuRla6GEJfvfddytyu3btap32/HP48OGKrOuvv97ct2+f53K4wvhCgIkyvsYrIq1F9sIiRYrYhAFbxj59+phrctfYx0CYOJ6Wlkaq9IBheEZGhmOmt2DhQhIsYEPZokULpZ/NmjcnkcWVxg8CTJTxM1YRaSk8cJD/Wp45VqhQwcQeHopu44jwarm5uaRtg/a5devWSpsw04MnD0UBMcuulOyxQ4FyfNXJRBlf40XaWsze5s+f79D+Llq0yJZ7+fJlhzfLgw8+aJ+n+gLTIMxgLQLPm+WK/Us9b7gX8vFjocfbLCs07h9//LEX1XMdcYgAE2UcDhpVkxF4V/e11iP4WO6MekIxqsRgcl9feOEFmyhBmEg9sWfPHvkSz77rKXhBzHClZI8dzyCOq4qYKONquGgbO2bMs4o7H5a3+/fvdwgFWT700EMKaYG4zp8/77jWywOov3z58orcNm3akJgLod0LxT6oNYPFJ0yl9uzd62WXuK44QYCJMk4GirqZHwgFjkwKVpRxLMd9FZjoyMErcG+qyJmDwL6UZeXKlWaJEiWUti5bvpxE5F/+8hezYcOGtizMKjt16kRGzCSd4Eo9QYCJ0hMY47uSv/71r2bTpk1tQgDp3XzLLXk+1/n1TPeRvuGGG8zNRInBrHagrfD7lkkdxPnVV19Zl3j2iZnzihUrHDnB0W8uiYUAE2VijbfP3qZPnqwoSkBCuz74wOe18kEoPSpWrKiQFvLRUO/jgRRlxQ7a+/jjj5PN9O4VXkgyMd98883mn//8ZxkK/l7AEWCiLOAD7Na9kyKpVp06dRTiwRI60IIMhiVLllSIJJxEY4HKHfSb3ygyy5ZFTvHwU1L4kn/s2HFTVl6BpKHkggUAl8RAgIkyMcbZby/79uunEE5lEfsR+a8DLbBl7CCSi8kzLtggUpvSgKQQI1OW21wYilOVuXPnKrKgcf/9739PJY7rjTEEmChjbEAi2RyQmWxYDdKB6yL25oIpX3/9tUIiqKdz587BVBHStYiwLgfdhVwoeygKNO5NmjRR+llPREfnkhgIMFEmxjg7enn27FmzZs2ayot/5513hhxnEsEj5NldURGyDPlngiVdR0PzOYBZpS8zpc8++yyfu0I/tWrVKrNUqVJ2P0HSMNDnUvARYKIs+GPs6CFMfmbMmKH4c4PkNm3a5Lg2mAPNhU+0TJZQglDv4yGVgywT33v06OFJZki971euXDGTRdBiWR7S9VJvM+jt4P8jjwATZeQxj7pE7EGWL19BeeG7d+8edruys7MdwSumTp0adr1uFbwkZMjkBcUL2kJR4PMuy4Jip5/Y5+Vo6BRox06dTJSxMxYRa8nQoUMVY3GET/PCDhHmQj179lSIBKTy6aefkvYN5kjQ3MsE1q59e7I4kjNffVWxEigpluPQ/nMpuAgwURbcsfXZs/XrNyizPkTGSU9P92xGtP/AAYeCqKPQilN77Pzud79zBPOYMHGiTwzCPYhZJQKBWMSMWSVl8rNw28v3h48AE2X4GMZNDVcuX3FkN0xKSvI8As+8efNsEgGZIMDvUoIc4DLwP//8s0OxA2UL3BApynLhNimnycAPzssvv0whiuuMAQSYKGNgECLRBKQzgOmPbE4DX+2cHJpYkrpL5H333WdevHiRtKuffPKJMlsGSbfv0IFkNgttvr7NgB8EZK3kUvAQYKIseGPqs0dQ4Oi5shE2jKr0Fp4r1tLU+hz9zDNU4ux6pwttviUPn8jRvWHDBvu8l1+Q5hYzSUseluBwpbSCHHspi+uKLgJMlNHFP2LSdX/lm8qVI0v9ekhkT5QJxCISzGap0s1aQML0qW7dejZ5QTayKV4iimq0ceNGRRY07uvWrbOaw58FBAEmygIykPl1AyHRLLLCJ5aI2EekKN9//71DqSLLbnxfY/Il+HvvvWder/mfL1qUSdHdPDtR/UeocuXKJvZMuRQcBJgoC85Y+uzJmTNnzOrVqytEWbduXROpWb0u2LcbM2aMYjojkyS+IyQaPHYoC5a+yNQoy75KzGY/+ugjErFbt241EVFIljdp0iQSWVxpdBBgoowO7hGT+uyzatRyvMxUniSYuSK3jEwYnUUkdGQxlI9VE8RNpY22gD19+nTezFmWm5qaavoLRGzdF8on7Dh1V8piwoXz8OHDoVTH98QgAkyUMTgoXjVp586djhBoDwcRQi3YdgwcOFAhRETYOSuW4tu3bXO0Y1oEgt9OfO45pT3YP8zMzCTxP0fQDNlcCATdXhi9U2v6gx0jvj40BJgoQ8MtLu7qLnye5RnV3XffbZ49d46k7W+99ZYiC8ockCFmcPD37isyJkIrbLdHfMcMlLokJyf/X6YgL5gt/e1vfyMRO2/efEXWdSI3OiKkc4l/BJgo438MffYgd80aZekJjfO0adNIlp5IGasH723ZsqWJtA1WQYZHmOrYRClIq1WrVmRuhpbctWvXOoJ/jB8/3jrt6SdsVR977DGlj7ffcQcrdjxFOTqVMVFGB3dSqdj/QwZFnZQQ/cbrAnLo2bOXIgtyscTVy3PaUhizzldeoSFvSzaCVQwcNEidzYr2eeHbbsmQP2EuhIhCFvb4gULQDi7xjQATZXyPn6P1UCw8mZbmIAYq2z5E+a4ioqJbxIDPXr16OdplHeggPGXka+vXb0Cu2IHyqnjx4opczGYpluAwC3qiTx9FFvoLAuUSvwgwUcbv2Pls+Z49e8yyQokik9GECRN8XhvuQZBC23btFFmlRSbGCxcu+K0aCiadtJD/hrpgr1DGBIoXREinKEg8JsvCdwQGoY7NSdEXrvN/CDBRFqAnAXaMmM3J+bYrCeNnaGQpih40F2klEMUnv2LZWsptBJEc/fzz/G7z5Fztu+5SCKxBgwYmIr1TFARBLlToKlvetcLIPysri0TjTtF+rlNFgIlSxSOu/3v77bftFxPkg1nT0qVLSV5O2Cki3YM8c4JGGcfdCuwLdQPtOsIInorQrfbs27fPLCdcN+U2U8228YOQkpJqy4LGPxIR362+8qe3CDBReotn1GqDAqd8+fL2iwkyQDIsZEmkKAMGDFBkQd42YS8ZaHn77dXK/bBxnD17dqC3h3QdtPNPaME6oFCiMgzftWuXWaGCGkl+qMgtxCX+EGCijL8xc7QYmufHtcjiWNoeOnTIca0XB9YI0yM5yRZIEt43wRa4Usqzu+o1apAHzfhG7B8iIIgs9x6RTREkSlHSNMUaiJk64jtFPxK9TibKAvAE7N6920QgBvnlp5q5IN3Do48+qshC+DYsNYMtyJaoL8FHjRoVbDVBXz9t2nSl/VAuUXnsQLGj/6i0vv9+8m2GoEHhG/JFgIkyX3ji46Suea5duzaZ6xyUNbIiBt8XvPZaSECBdAcPHqyYMsHu8IMPPgipvmBu6iilcsAPzO23327CKJ6ibNu+3UHM1IFBKPqRyHUyUcb56L///vtK1HIs7aheQuS9kWet+J6SkhKWPSLCstUQS265XuQbp1oKW8MNjX0xzbbypZdesk57/vmrX/3K0cdzRO6knjeeKzSZKOP4IYB3CUxyZJLpIOz1KAIxwJD9Uc09D6TsRVpYKHHkPqDeyZMne5bwzNcQoz/YnpBnx2jD+0EopHzV6+/Y/v37le0RyH1GhKTjEh8IMFHGxzg5WgnXvEE+XPOQN4aiwLNH99V+8sknPROFEGgyWUKx8+WXX3pWv6+K8EOj75FSmfDAOD9NRFeSA4PgRw4rAi6xjwATZeyPkc8Wgrj0QBRDnn7a57XhHkQahU6dOytEVkr4M3tZkJRLXwoPi4ApzdJly5R+Yab3wgsvhKSccsMDZKn/2CDpGvU2g1u7+Lw7AkyU7hjF3BUwB8Kelzw7qV+/vonlJEVBalZ5tgebRxi3e1nQJ8SPhDJHlrVFRA+nLu00N8x7BJaIDE9RcnJylHErIpwC5s6dSxLViaL9iVonE2UcjvwiEZlHJpQiIu7hcpFeIRQTHbfuw5Ad6Rtk8oLG+Hw+/txudfo7f/LkSYdiB2HKfvzxR3+3eHL8D3/4gxLxB31FRCSqgi0TGU8kP4NSi0vsIsBEGbtj47NlIA35JcP3Ll26kJAkiPf+Nm0UeXCLpAy4u3LlSmXGhVnz6NH0aW7HjRun9BO4njhxwucYhHsQgUtk20r86A0fMSLcavl+QgSYKAnB9bpqRJ/p1q2b8kLjJYPBOUWBB46+p9a3Xz8KUUqdSUlJSh9h43j06FHlGq//ASlWq1ZNkXubkEthwoMfIGj1od2Xf/R2iMhKXGITASbK2BwXn63asGGDWaZMGeXlmjlzps9rwz2I6OQtWrRUZFWsVMmkCP4rt/W40ETfIEK1yQSC712FNxB1Wf3OO4pcSv9zZMHUA3Q0F26gFMRMjVsi1M9EGSejjBSsyF4oEwjcFin2JQEJUijIsvAd+bKpS30R+kyXa/0fCR9pkJUlD5+I7QlXS4oCTb8sCxp3pOvgEnsIMFHG3pj4bNESES5Nfqmwx7Vlyxaf14Z78MsvjynLQuwTYh+UKhIR2gvCX7x4sSOor9xn2DxS5COX8Tp27Jgj4g9S/lIVZMW0+gic7xIxM7/++msqcVxviAgwUYYIXCRv+1wEtdVz4MBAm8IDB1kTQYrWy4tP2GvuFSkfKAuCRzRq1EiRC227bAKFPb309HSyWTT6BxOrZ555RvHYwUyPajaNgMV3CM2+jDdCwXGJLQSYKGNrPHy2BmkE5BepsIiWTWXnt3DRIkfWwkjsDy5cuFAhRfR39ep3TLhkyn1HqgkE4KUs+AG68847FbmIkIQfEa8LZtIjRcQk+QcB47t3716vRXF9YSDARBkGeNS34iVasmSJg7iGDRtOIvqCUODopIzZDnXB3qNMhpjBwSsHHiuw46xatapy/jcRyLGTKbYB5DbBumDs2LEk/ucw+brtttsVeSDmQKLFU48N1/8/BJgoY/hJQJbAFi1aKC9Q69atyVo8ZcoURRZmNrm5uWTyUDHc+nQFSnkRFdxS3MCnPUNo9qGBlonLa88gX53s3bu3IhOG4VRmSrBokPt3dQQCg/jqMx/zjQATpW9cYuIolqOyrR0SVEEbTVFg9gNilF9WpHtAzEjKAi2vHgFpzpy5ikiEd0OwCrltMK2hctm0hGNvWM8Y2b9/f+u0558jhNG53kcol7hEHwEmyuiPgc8WHDlyRHlpsIeFl5SCHECS94n8OvJLCq36RpFJkLIgUG6zZs0UuXXq1PEpctPmzcp1wAPReDAjpSrY+pgxY4aDyJHLnKJgtipvM2ALAoGNuUQfASbK6I+BowXwwElOTlaIoZjIeHjgo48c13pxAG6DeiSi50SACuoycuRIpY8wpkfcRn/laREdSSZzkMpHRJhYbTh16pQJf3NZbpUqVUjS3GKbId2Hx85rIUaQt/rAn+EjwEQZPoae1/D666/npZqVX85FQhtNUaA9r1uvnkIENwkja4qZq9z+CyKohr7khlkOogj5KwgcUV0zuu8swr9Rl+1aKgfM9NBWioJtBj3iO1w4qQODUPSlINXJRBljownXwTYPPKCYi9QTWQKpSlZWlkKSmLnmN6vzoh3wMtJtB+FnDU8Vt4IfEURLkn9EIpFjp402wweZUQVJxtJejg6Vp3EXQTvy+xFxw43Ph4cAE2V4+Hl+N/K2yCQAv2eqYAnYE7tOI51u3buTz16wlNTJbs6cOQFhefbsWbNx48YKRqVFEGEqu1KrUTCI12d6PUWKYKoydOgwpY8wF/riiy+oxHG9LggwUboAFMnTcF3TYz/CS4NqGdxEU+DIZjlU/casES+9/GOAPb9gZkvYq5Xvh2LnqaeeompyXr0wNn/xxReVmT6W4FSKHaSp0GfdXbt2Je0jV+4fASZK/9hE9AwUOPpMCXuFFOYh0ObOmjVL2CaqS9iBIqAsdYEWWSY5zAZPioC9wRbdY6dcuZvNHTt2BFtNUNdfOH/eMUZQgp0XxynKq6++qphsYQnOOXYokHavk4nSHSPyK0Bcb775piPK9uwAl6PBNhDLVH02WaduXVIfarQRkcRlBQ5mZKOE+14otppQemDvVibdRx55JFgogr7+HS0UG8hr/PjxJB47UHhhXOQ+YjZ+6hQHzQh64MK8gYkyTAC9uP27774z62ovBGaXFL7FaO/Ul19WlpDwAtkZgaCxSbVrKy89/KlDjZSDHxfsdcpKDxDv+vXrvRiSfOt4ok8fpR9ly5Y1d4uo5RTliBaKDQ4IEydOJP9Ro+hLPNfJRBkDowdFBl5ya+aA5RyV5hn+w5YcfGJ/b/jw4SHN6gKFDoSPl1smNcgeHaaJDbYrOnTooPQH9VLnn8FSW09zO1AYv1MV7L/KY1a+fHkym1qqPsR7vUyUUR7BgwcPKm6KIEy8GBQpTOGB06BhQ+WlqyD8qj/88ENSFJCfW58xPygSlHlR3n33XaU/IJS+ffuSeuyA+LF/KG8jQO4ykfqWoiAGp7zNgB+3xx57jEIU1+kHASZKP8BE4jDc7xDkAg++NWO45ZZbTLj2UZSMjAxFOQCZzz//PIUopU5EApL7iPzdgdhMKpXk88+kSZNs/NAnmFRRxY+0mgF7V+TktsYNn8gvhEAmXhcQM7ZLZL9/fF/lccpgr9tdkOpjoozSaGKPDbMSJSpOIUOkAphO0iJolvXAEvByoS4gfZlMMGOeOnWqp/uvUAbBxEiWgxiacAmkLIj4I/8AQD7MuYIxdQq0fahTjyQFqwgqjXug7UqU65goozTSMGCGwkZ+0bxajvrq0rjf/lYhEthrUvtJIwBudeHBIhMYtLYff/yxryaGdewNkddc+dERpJWZuTisOgO5GYFK5P7B/xzafYqya9cu5XnBnu/o0aPJ7Gwp+hCvdTJRRmnkxo+foCg3kOqByngZChzdE4ZagQNYsSTWFThUcSSRz+cB4fopkxbcMeHJQ1lQfzmRy0eW27JVKzKRr7zyiiILs0oqxR9ZJ+KwYibKKAwalsHyi4Xl6MSJz5GYfEAphGyNsjwsuQ8fPkzac/hBI9CtLLeeCL5BWTBT1Yk5JSWFVLGD/ixfvtyh2KEiLyh25G0GPDvI9Y6tHC50CDBR0mHrs2bMfPS9QhAZ4k9SFJge6QF5sUdIXTBjlUkSfaRSUsl9wVJUlgszHmpvFqSr0PcPsQ2AEG0UZcWKFQ5XVzgscKFDgImSDlufNUOBoy+Ds7OzfV4b7kHko0aILpk4atasST7DAunr5DxZxFmkVq4AL1gS3HuvGjQDXkgwjaIs2DaRccb3IUOGkIjE3q/u7lqpUiXywCAknYmTSpkoIzhQyAOj72chFiRVmTF9uvLyYpZDnbAKS/2iYm9QJg281PA+ilRZs2aNYym8WURIpy4Ijyf3u0SJ68lSdyBohr7N0K9fv4j8GFHjGIv1M1FGcFTGiZiC8osEY2+KoBfoEjSvVwmtqCUPe1kjRowk9cDBPhk8cCDLkotPxLyMZMGMC5F25DaAVKjDlMFMKSlJddOEYTjVTNq5vVGF09wSPWhMlETA6tUiNBi0sNbLC7MgpEKgCKEGA+W77rrLlgWZtWrVIiNlq68gZ5jHWH3EJ+wZ0Z5IFyiTdM+ZX//616RKD/xQLFjwmmIYjnHGniJFQdTzpk2bKnhD88/FewSYKL3H1FEj9s10zTMCQiA6jNcFLysUGvqsbsyYMV6LctSHvNcySYKoLhJ4qjgE+zmQnp6utKdo0aIm7C0pC2aV0LTLOOA71R4p8o9fI3C25GHmvG7dOsouJmTdTJTEw45l14QJqs0kHmqqEGpIsQozHOvFwSdmHdRl27ZtikyQ5Ksi5mU0ZpNyXxs0aKC0Czl2EKKNsmzcuFGRiTGACU8o4eTc2onAIO21wCBQpFEY9bu1pSCfZ6IkHl0Qlx6pGi8NVUlLS1NeUsyioESiLCAA+KjL5AwFDryPol2g2JGjxmMpPHPmTPJmIUaljAdCsW3aTJP+95CwH5VloY99RCg4ylS+5ADGmAAmSuIBwQsjL4OLFi1mHj9+nEQqknbJLwy+gxSojZH7iGg9utzVq1eT9DHYSjGj7927t6N9VEthq33AHNHbZVw6iohJFFGhIDNDjLMsq7gIPLKJOC+71ddE+GSiJBzlrVu3Kg8vIr5MmTKFRAv6g9jY102P4BlDlSnQgg1h4nQPHMSIjKWydu1ahx9423btTCxbKcu7YjYLwpIJbAWRYTi2E+QQephVpqSmUnYvoepmoiQabpioVNNyUGMJfjKE/DCBNBEG3fLMFS9nVtaSQG4N+RpEtNHNcGD4fO7cuZDrpLpx4MBBCmGVKlXKRFoHygJlXTtByDJRYiuEImMkZrBQVOk2rFT5xylxi8W6mSiJRgVaZp241hJpI/ft2+fQqiOjIvWSGy88Zi4yEVAFrw13mKBUKiP2CeW2Yh+VwvJAbiv2h+U4kpBPNePGeHfs2FHpI57BWPzhkjGKh+9MlASjhHzZderUUR5YyhBqmDXIBIAAstQEgKg5+rKyefPmMaHA8TekWIJjRidjlZmZ6e9yz473FR4zskwodqhy++QRs2QuBLkweqfeZvAMrBitiImSYGB0zTNynFAFSNh/4IBiWI0Z3m9F7EkqbxALLj34BOSCiGK54McjJSVVIS24dSJVBWXBWOgmWy1atjShfKMoCIQiEzNCsWG/nEvoCDBRho6dzzvhJqcHhEAMQaplsB6sFukJEIqLsmwQdoI3limjvIw1heKIqo9e9gVZHzHjlokEM2Hqkpubq2xT4IclJyeXRCzMtWTFDvpaRXhMsblQ6HAzUYaOneNO7AWVK1dOeQlh8ExBXNhzQ05s+YXHd5iJUBa4XCLjoCwX8RHjgSQtXCaLPEFy+xE0GTElKfuA2WO37t0UskQbTpw4YTXL00+kqdDNk5YuXeqpjESqjInSo9HGSwbNs+5f/C7RchR+1QjAK7/wrUSiMsqXHVAh66EctQbf58+f7xGKkakGGCUnJyvYNW58H3maWyjd9D3SHj16kMz0YC6ku1Ii1gC180FkRjDyUpgoPcIcxAXTGJm42rZtS0Jc2PMaPHiIIguaVWQGpC5yYA/0FUoqBGeIt7J9+3ZFG42lcCQIH/vH8jNSRCiXlhDN9JDfXJaF7126dCF5JuNt/INtLxNlsIj5uX6olpIVpEmVIU8PEotZ3SzhV005m4TN5OM9eyovHuQuXLjQDyKxfRhbCMifDoKUycTLNLr+EKiVlKTIxI8N7G4pCqLZy/1DKt/s7BzSZ4WiH9Gu878AAAD//y28C4EAACwsSURBVO1dB/zURBYeihQLWBBUEAXBAoqIoEcRxAIqJ6ggYDvhFGlWQFDBUxHkFAQEpNg4z4KKnkgVT7xTEQUrKKggcAgoCkq3e3Pvy5k4k2Q32d3M/neTN7/f/jabTaZ8M/ky896b94TklDMC8+fPl2XLlpVCCOuD45GjRslffvkl57zdGezcuVNWrVrVKQtlNmnSRK5du9Z9aaS/X3nlFXnIIYdo5fbo0SPSMvKd2TvvvCMPOOAArU0tW7aU33//vdGqzJw5U1asWFErd+TIkUbK/O9//yvPOeccp6xSpUrJU045xXgbjTSmBDMVJVh2LIr+8ccfZZUqVZyBCOJq3ry53LFjh5H2XXnllVpZKG/q1KlGyrIz3bV7tzz/ggu0citVqiS/++47+5Ki/X74kUe0dpUrV16OGzfeaHswZi6//HKt3AoVKsitW7caKfe5f/xDli9f3ikPL/IxY8caKSuumTJR5tCzP//8s7zuuusk3tL2bBLHTzzxZA65pr71rcWLZa1atZyyUOZJJ52U+oaI/llAs0m7ffjGg/bMM89ElHvJZ9OwYUOtfS1atJCbNm0yWrE333xLVq5cWSsXL1gTLx+sbDD7V8cp+nHVqlVG2xinzJkoc+jNJUuWyNq1a2uDvWfPnjnkmPrWH374QXbp2lUra7/99pPffPNN6psi+Gfz5s1yv/3318rF8nTDhg0R5F4YWSxcuFDuvffeWhtvHDjQeOWGDx+ulbnvvvvK6dOnGyn3ww8/lHvssYdWXseOHeWuXbuMlBe3TJkoc+hRLJ9Kly7tDL79iVBALCbS0qVLNTkoZgQPPPCAiaK0PDt37uy0D2Xuueee8rXXXtOuKfYfWAr36dNHaydIZePGjUab9tNPP8maNWtq5R5zzDHyiy++MFLuP2gJjj60P5CTPv7440bKilumTJRZ9uhiWgbbAw7f5cqVMzboMGuEDEstrzktD9etW5dl7cPdNnfuXHnggQdq5Z533nnhbi6yq7AMPfzww7W21qtfX0J5ZjK99dZbcp999tHKfYTkpqZSo0aNnLKwFD/11FPl9u3bTRUXm3yZKLPoyi+//NKjeW7atKmx5Wi/fv2cwQ2yhIzw6aefzqLm4W/Bw9O+fQet3PpEHKY1wuFrGP2VkyZN0tqL2fPDDz8cfUFKjiDiyy67TJMfYjb74UcfKVdFd/j666/Lgw46SGvnsGHDoisgpjkxUWbRsZBDugXjixYtyiKn4FvmzJnj0apjVmDC9EitzYsvvijLlCmjPVCm5GdquSV5DEzr1KmjtRm/V640q/TAbNZt8nX66acbgQJihosvvlhr41577SU//fRTI+XFJVMmygx7cuasmRKmMeoyuO1ZZ2WYS7jLocDp1auXVhbkoKYT5KyYtdptxEuhS5cuiViirVixwqONHjNmjGnIZa/evR28gTvMeWDCAzvIqBNkoFAc2f2Lb2j6TWjco657SeXHRJkB8phxXHTRRdoAg/Adb2kT6WkywVGVRZjhjRtv1sbv119/lZdeeqnWRmiEYVSfhISX04ABA7TZNHCHLNF0atmqlYZ7s2bNJcQ8JtK4ceO0smBBMW3aNCPEbKL++c6TiTIDxF966SXNcLd06TJy8uQpRgYXCMttyH722WfLLVu2ZFDjzC996qmnZCWXfd8NN9xgpI2Z1y4/d6xfv95j9tW4cWPjGGD3E5SC9kwPM3mYEJlImKme2769UxbKPO6444yPLxNtyUeeTJQhUcZy1B7A9vcf//hHI1pRzFzdO2Eg4DdtDgQFjtscCGSdxAQljt3P+IYo4rbbb5d4gZlK2MDQv39/kn//bnKGsjcaMheC/ahq9I7Vy1jesePbvUyUvrDoJ2Hv5l5yYwDPnDVLvzCiX//61788+6q7krG56XT/xIlS0CzGJoiKpPV94YUXTBdbsPm3a9fOwQKYQIm2Zs0ao/XF/nO3Yuekk082YhgOkdE1116riXfQzjlkFsZJR4CJUsfD9xc0wO5lMJajJhJmde4HFDJC0ztwYPajzi7wwMBsJck7N1Z8/LG+BKeXyLW0ZdV0wt5s+2WFb9jQTpgwwUixMKqvUkW3lcVWyjibgWUDZCncRJ3BKQUCNJsU5IhC0A4GvFSsq6pVqyZoL3CKO3I7TUoDQTaZTiakSBAzZswQtMx3zkV9QEt90bp1a0FLMSdrIk1By0/RrFkzp93Onwk5QH+PHj3a+qhNXrZsmaAXpzFcaAksaP+5+Oqrr5xiTzzxREGiF3HwwQdHWi7JQcVjNLYHDRzolFWufHkxatQocXXfvrTAKOWcT/QBiJJTagQgF6QB4nzwdofCw0SiB8OjSMG+aigXTCa4/YLZkdpOaHrhgqwMyeYgu0riB33tNgUDRlCylC27hxFMkDe2Fqrefux+QR+gX6Lsi7Ik+3bvc0cdTqblPsYjp/8jgLcTpxQIQMMMOZ09UPF9FtlMfmvIHdYlPmY50LSbTLCpa0ZLLbWNfPz7izHJWHS68EKTQ6+o8maiTNFd0DxjX7P6oMB044033khxR26n4bbMbQQMB6um0yxSSKlt5GMmSXUMfPbZZ6aHYFHkzzJKGhV+acGCBYK8AwkSdjt/9yWZDQnVnd9RHZACR3Tv3l08//zzTpbVq1cX5LVckFmQcy7qg//85z+iXr16ggT3TtbkzUYcccQRAnJLlk85sMT/gGSRtKQX77z9tiAFntNe8ncq5s2bJ0g045xL4gETpU+v7969W1x4YWcaIHOdf8nvpPj4448FzSqdc1EdPPvsc6Jr1y6CbPSsLEFQU6dOtYg6qjL88jn33HPF7Nmznb9IHido25w4q21bQQbJznk+SAYCpYgop0yeLO68806nweQYxFJmkX8D51wiD4pi3pvnStJs0rOFDS7HTCTYstHA0z6wmYSZkMk0nsxN3K7bsFODEyNwguKKDWPzANp08EnCnWawjNL1XNByVFZwBX66gOLFmIhngp0YHTt10kgSvgnJHMhVq2h/QpvZpk0brVwEDjO56yTaFnBuJhGAk2i3FcTNN99sssiCz5uJUukiEIXbNyB8EmK3hIkEBY7byLtbt27G9xSPve8+y8TEnsnC5MSUyZMJ3DhPswiQ6EnClSDMkOwxgtUHtjwmNTFRKj0PZ7huu7mLL7lEuSK6Q8xQzz//fGcgYkDCds50gjbfHvz2N9zEmQphYbo9nL8ZBBBjh4zbtbFy5JFHGveDaqY1uefKRPkbhpAJdujQQXPI26BBg9wRTpHDgw8+qA1CmB7B8Ntkgguxpk2baeUi1MP8+WZtNU22ifM2hwAcZNgvU3xjVnnvvaMTSZZMlL+NM+zAwRLUHhiY3SEYk4m0bds2uS/5/7PLwveFZNy7lc6bTI9Q/G+IEtRyL6elPidGIBUCsOVVx8vRRx8tV69enery2J5noqSuhQMAVR6DgUH7u429ORGLWx18EJyTrZrRQfY5bYOEF2u13D0pBAArcIzCXvSZL1v2oUSoCHvc4DkZOHBQ0bcr0wYknihBkh1cO3CgeX755ZczxTLU9WRU7tmBA1I2naDAsQc7vrGMMh04y3SbOH/zCEBcc+ONN2qhQTB+Fr35pvnCC6iExBMlAmbBDb5KIiNGjDDSRRs2bJDkjUcrCxHxduzYYaQ8O1O40nI7PsCSO8ku1Gxs+DsYAWxjPNwVyrfRiSfKb7/9NvjmmFyRaKKEj8e2bdtqCpxq1Q4ythyFE1x4ZlFJ+e233zY+lOrWPVIrE741aUeO8XK5gPggQG7XtDGEJfgtt9wSnwYGtCTRRIlA8yppwTTIVBCpdZ9/LsnPn1MeCBNhF6DYMZmgpHK77OrWvbvJIjnvmCJwxhlnOOMXzw1i7CQlzG1iiRIu/d2aZ4R7MLV1sL0rkBOW3KY8EdnPKZZM5PBVG9yH1qwpsfuIEyOQKQLksFiS02ptPF3Zo0em2RTl9Yklyj/84Q9ahyNOycqVK4104n0UGtQ9q8PWRRMxm9UGTJo0ybPU/+ijj9RL+JgRCI0ALCRupwBrqvgI4/r9998PnUexXpg4ogQ53UcaYDdxmYqFgn3VkIOqS/zDa9UyPl5Wrlql2YVicHfs2NG44sh4w7iAEkUAs8qjjjpKG8/YwWM6jHKJNpoKTxxRIqB8ixa6ES1ml6bS3XffrdloIuzsnDlzTBVn5Ys3P1z5q+QMpxeIG82JEcgVAWzEUMcWJh133XWXMSVorvWN4v7EEeWUKVM0mzDEa3711VejwNKTBwgL8U/UQXUdRfGDbZrJNHToUG02ifJ7XHWVhLciToxArghgVdayVSttXB9ML+J3330316wL9v5EEeUnn3yidS6Wo9dSXGMTxIU8j2/YUCsP+6rnzjW7AweKGoriqJULATwnRiBKBBDwDsHn7EkAzIUwCYhrSgxRgrjcWwdBIKZcqD366KOe2eSQIUOMj6P+/fs7gxeDGNsjTTvbMN4oLqDgEMDzdMcdd3jG+BQyR4tjSkwoiIkTJwoiEUEdTPzx/3TPPfcI2p5l/4zse/XqNVZoByJhJ0/EySb5qKCluHMu6oPvvvtO0Ftea2Pr004TQwYPFjt37BRly5aJukjOL6EI0OpbbKNYT7fccrOgHWcOCoh5T04zBO0Pd87F4iCO7O9uE0KyEmFoZg3169d3XxbZb8hBaXA4H+yrpng7keXvlxGRpIScSC2Xj3/vA8YiP1jYS/C4ycMTsfTu33+ARiBwerF48WI/vsn53Lp16zRvK3hA4TUdXqNNpnFkq4lByoSQH0JgnFPjTFE85XvvvWdyuOc979gTJcyBYJKjDmwInRHUy0TCti61LAwaxCAxmaBtRDlquXyc+kFmbMxj05Scv8QpxVpGiXjViEtMu1Ho2fh/Ii8oguwYrXjW9rkovmlQiPHjx4sBAwYIWnY4Wfbu00dMvP9+57eJA8haBw0a5GRNM2aBuOCk1XfO8QEjYBKBH3/8SWzcuEHQBMQpZtGiRYIsMJzfRX0QJ9Z3twX+Ft3uxShutfuySH5/Rl6fGzdpos3qEGPkp59+iiT/VJlgS6K6ywgmTzfddBPbTKYCjM8bQeDrr78mF4LNtfEPfwYwI4pDiu3Se8WKFZ7lKJYDpoTMI0eO1GSEIKx8uFBz+wls3LgxO72Iw5NZhG149tlnNaKEzPzqq682FikgnxDFlihhXO7ek9qEQjCYmOFt2rRJGyAgSVoKGynLHhzYHeFWUtHSRiY9/rKND3/nHwF4q8IYtD8gyt69e8dia2NsiRLDBP4mPUvvMWMiHUEg3oauHTi1SbFiypDdrjzCicLEyR6U+IYJlGmPRHb5/M0IqAhg6e3eEVajRg2JSUQcUqyJEraFWIqqZILOi5LEhpMzALdZzq233mqUsBCbu1+/fppdaFnS7MM0iRMjUBIIYCca7IXVZ+3NGMXViTVRYsBs3bpVc4KBjiTNdCSyytXk/LeJS4EDAbbpBAG5OiCx1J8wYYJRcjbdJs6/eBHArLEWuQ60xyQmDldccUXxNsin5rEnSrT5uuuvdzoRnYnwmwsXLvSBI7NTiE5nDw58V6SY2VgSm0wwXIeXcrVcLMHZIa9J1DnvdAhc73q+2OA8HVoF/B/eeGeeeaa2VG3QoEFONUZgMjXeMYhr8ODBxjV8MP1RSRLHTzzxRE5t4ZsZgWwR+Oc//6k9V2XKlJGDYmielogZJQbB/RMnemQo2UaRgwKnUuXKGmHVJZtJ09u2kH/dunW1cmvS7JITI1ASCGB14/bIBW/npna9lUQb7TITQ5Swn+zQoYOmeIE8MRtyw75q96zu7nvusTE18g1y7tOnj1Yu9qwnKbayEWA506wQgEJx9OjR2mYHOMGeP39+VvkV+k2JIUp0BJzaojNtkoMSpGfPnhLa8bAJGvMj6tRx8kBeNQ87LKM8wpalXgcZpFurOHz4cPUSPmYE8oYAPHKpmx2gwGHHvXmD33xBTz75pIcsw4aNhY0iduDYRItvEC/tKTdaccyG3SElTm3dWn5BDj84MQIlgUCvXr205wAKxvc/+KAkqpKXMhM1owSiUOy0bNlS62QodrCUCEoIy6l6IsKMdABpvhEbx2SCZ3SVnCEwf/Chh0wWyXkzAikRgAJHHY/wNTBixIhYm6cljigxK8SeVDXeBzodJg5BqV69etoAadSokVxFYWFNJgQ+g5G8OjDbt28fiR2oyXpz3vFEYPPmzR7nL4ceeqj8ms7HOSWOKO3OdO/YQeAvONJIlfr27auRFYjrxoEDU10eyXkocLBnXCVJyII4MQIlhcCwYcO08YgV1sqVK0uqOnkrN7FEuXHjRglyVEmoc+fOcvv27R7wly9f7tlXjdmk6YQljro9EvLQyZMmmS6W82cEfBFYu3atPProo7VnBsrQJKTEEiU6F04zVKKEAw13jG/M6nr37qMZ1UImY3rJDbmnui0M9WwNBQ5pGzkxAiWBQKdOnbTn5fjjj0/EbBJYJ5oosQ8c8j4oZWzC3H//A7QxuG3bNu1/XPdAHkJydu3a1akTysRs8q9//atWN/7BCOQLAfJWro1HrHTyEX45X+0LKifWoSCIYALT9OnTBS0fBJGmc+2QwUNEx04dBc0mRfsOHcRXmzY5/x1GoSRGjRwpaLYnShsItVCqdGmxZs0aQd6BBHkDcsolRZKYNm2aIO284AAPDix8YBoBGuPfU4jnSy6+WJAdslMa+XoVS5YsEZUqVXLOxfkg8USJGB/dunUXTz01zelnMr8RtWvXtuJ/fP755855HOxJ8YqrH3KIRVj0VtX+i+IH8gRpb9myRctu3333FbSTyCJvmgFr//EPRsAUAhhruylePCYLZDHiFPPi/PmibZs2zu+4HySeKNHBP9Abkwy6497X3D5GIGcE8CIn5y9i6NChOedVTBkwUf7WW4899pggH3paBMVi6kiuKyOQDwSOOvpoMWf2bEGu1PJRXMGUwUT5W1fs3LlTDKSQr8uWLROkOCmYDuKKMAKFggDk4xQsTHTp3FmYEDsVSjv96sFEqaACeSVicrMMUAGFDxmB3xAgzbAgxyyJnEgwUfJjwAgwAoxAAAJMlAEA8d+MACPACDBR8hhgBBgBRiAAASbKAID4b0aAEWAEmCh5DDACjAAjEIAAE2UAQPw3I8AIMAJMlDwGGAFGgBEIQICJMgAg/psRYAQYASZKHgNFjwCcNcybN09QNE2nLRTqQ5x66qmJ20HiAMAHkSLARBkpnJxZSSCAHVWHkEcninHuFH/ssccKitkuKFSBc44PGIFsEWCizBY5vq9gEIDfUPhHVP0lnnzyyeL1119noiyYXiruijBRFnf/ce0JgbgTJRy2ULwaUbNmTQG/pJzyjwATZf4x5xIjRiCuRAknFLNmzRJdunSxfKbCqxXcAVIQPJa9RjyGgrJjogxCiP8veATiSpQQJZxxxhli9erVTh/Ayz1F5xSQwXLKHwJMlPnDmksyhEBcifLll18WF1Osms2bNzvI7bPPPmLq1KmiY8eOzjk+MI8AE6V5jLkEwwjElSg//fRTcc4551jB5mwIq1atai3HTzrpJPsUf+cBASbKPIDMRZhFIK5ECdQoNLIYN26cQJC7GjVqiD//+c9WhM6keRg3O4KCc2eiDMaIryhwBOJMlFDorFy50orMCY33kUceyYqcEhiPTJQlADoXGS0CcSbKaJHi3LJFgIkyW+T4voJBgImyYLoithVhooxt1yanYUyUyenrkmopE2VJIc/lRoYAE2VkUHJGKRBgokwBTLGchrDfToUYZjcf9cuWKPNRN7tviuWbMfHvKSZKwmXTl1+K3YqLLn+osj9brlw5y7tNmTJlss/ktztBCtCCvvHGG2LFihVi27ZtlnsxlLHffvuJOnXqiObNm4sGDRqI8uXL51weMvj11181hxM4V6VKFVG5cmUcetLGjRvFokWLxLvvvis2bdokdu/eLVC/SpUqWfuVUb9GjRqJvffe23NvNicyIcpvvvlGvPXWW1b9vvrqK7Fjxw4rjvv+++8vDj74YMs1W8OGDa26ZlOXKO+B+zhgifYhlS5VijTeZUSNQ2uIKMaSXdcvafwDk/fff1988cUX1phCf+21117WuIXNJpyMoM8Tm+gNkvjUtGlTTMuMfciZgaTBmDXO9MDIH374QY4fP16SO7FQ9aSBLocMGSKJDCTuzyWR4bOkB1Mrd+jQoVqWRKbyzTfflMCSZrbatX7Y0r5l2bt3b7l+/fqc60du1uThhx+ulUkPtiSCseqI9m/fvl1eddVVskKFCtp1fnXbc8895cCBAyURfM5100DK8Af6jl58Wn1pC6OkLY0Z5uS93O6vli1bSrLJ1MrwwwT9dWabM+XixYvlzz//7M0w5mdEzNsXqnm0+yFwoPgNnrDnaHYnaRtaqLq4LwKR3HfffRZBhhnQap1AWHiwbrvtNrl8+fKsH/pVq1Z58Ln77rutqoKMXnvtNXnhhReGeuDc9TvwwAPlTTfdJD/88MOs65eOKGkGKceOHStBfmrZYY6rVasmH3zwQblr1y53t+Tl95YtW2TdunW1etOsV5Lxedbloy2zZ8+WrVu3zri/gBlemO3bt5cvvvii9SLJuiJFdiMTJXVYoRLl0qVLZatWrULNgtI9+CBYWk7KZ555Rv7yyy8ZD1E/ohw5cqTErIR2jshDDz1Ue5jT1cXvPxA6XibPPfdcVvXzI0rMlEAKl1xyiaQlftb1I0/p8uabb84YsyhuiJoo0ffXX3+9xMvJrx8yOUdiHusFhxdREhITJfXyWWedlfPASTfIsplRvvrqq5JkjJHWi7x9y+effz7jce1HlJhRPvrooxJ5pmt7Jv+hvZjtZJr8iBLkSDK1UGKAoDqijXgx5DtFSZTff/+9PKbeMZHgYeOF2eW5556bb1hKpDxW5lCvDxo0SCxbtoyOsk8QvCMPKC/c6cQTTxTz588XiOMSlJAPLWWtPb1w1qomCNihcDj77LMtj95NmjSxlCPwUwiBP4TyH3zwgXjllVcsRQqUFVCkqAlKgIceesjySoP8wqTPPvtM0BJQu5RkfZaPRPUk8oPAHwolOHNA/WrXri0qVqwoaDZjecH5+OOPLZzmzJlj7V8m2aGahaWkmDFjhmjXrp2lZNH+TPEDbXd7OPe7FJ530BdQdEE5gS2BsBTYunWrePvttwUt/y2FBn7T06hlAWcUM2fOtO7T/jD4A4onkvkKelE5paD/SU4oaBbvnAs6wDjo2bOnVX+1XQiTgTFZq1Ytq7+AzRFHHGEp6TAOEVpjzZo11piCa7ePPvrIwkotD+Op3TntxOQpk62xqf4Xq+MSoecCKxQzErxxc/l88sknkojBM7sizaE1G7EVC0FNh9LnhBNO8OSDtzeWkf/+978DZWZQQkDoDtkfkYEnL8y0iIxCywT9ZpT0EHjyJQKXL7zwgiWPhQIlVYJiCmKFu+66SxIBefI57LDDLMVQqvvd5/1mlGr9IHogEpDPPvts2roRQVrLfyiC3Aop5AHlEwUwcxdv7HdUM0qaCPiKbyCnhDiGNOtpxwKW7OQbU/7973+Xp5xyiicvKA779esnyRO7MSxKOmNeekfUA1dccYWEZlB9QHGMpQke5LAJShF3HvSWtxQymeSD8nA9lBGNGzf25AlSp9lvqGqFIUrIeZFfOoJ0F4aXB3nslmQ2pNUPJNW9W7fQD146okRe5PxWkhmVu3jf36g/XnrA3N0PsF6gWZXvfSZORkGUZKLlK8KhCJVyw4YNGfUXsKEVgezUqZMHG4gn5s6dawKGgsiTiTLHbsDsCDMjzPjUBwsPKMgo7AOKatBy1JMPzIFGjRqVUy0ffvhhCaWEWj/MkEaMGBEq33REidkEOZENTWruAvHwTZw4UZJNplY/Wq5LWu65L/f9nY4o69WrJ8k+0Pe+dCcpMJmnTsAMM7B8pVyJEjNkcs2m4QpCO++88+TXX3+ddTPWrl0rKRyFx5IAK6F8zrizbkAWNzJRZgGafQu0vpMnT/YoNECSZKQryTDcvjTwG4SKpZBKZiDfbjSzikKzCBMZ98yNjKwtO8agyqUiSrTzzDPPlJi15JIws7z11ls9ZN62bdtQ2aYjSphWoZ+ySTfccIPWH+ibHj16ZJNVVvfkSpRQQIHc1TF1+umnS5LHZjST9Ks8RCcY42reKGv06NF+lxf9OSbKHLpw4cKFvgbg1atXt5YhmSxDITMEcakDD8bbuZKQ3TwYL0M8gBmFWsa1115rX5LyOxVR4sGwzYRS3hzyD8xSjj/+eK1umK2i7KCUiihhOwl5bbYJy2y35QEpPrLNLuP7ciFK3IuXmNrXOMbqJNsXh9oA5PHII494Xr6w84yjrJKJUu39DI5pq5f1RsWsSh2MkFNmulT++aefLVs9d17XXHNNBjUKvvTJJ5+UUC6p9T3mmGMCZ6ypiBIG2aQVDS44xBUguzFjxnhsHmH3F5RSEeUtt9wSdGva//FyadGihYYXyDtfRJALUUJs4VaUQVaLcRtVgoIHii91PGHnE+xh45aYKLPoUch3MOjcxIYZ1uDBgzPe4oUHAvmpAw6DHEqFKBMefGh/1XKgASfTpbTFpCLKAQMG5LyEUwumYFoeY2jIGGGNkC6lIkrs9sklYTaKbY8qXjgGQeQjZUuUWMlQ+AjP+Awrkw7bNswqIZ9X8cEzgRd8NhsbwpZbEtcxUWaIOpQ3l112mWcQYoBQPJOslnqYlbmX3dBKZrJ0D9MM5IeltjqwsRQPMqZORZQwQYoygcjdW/Ywaw2S9foRJWZ+uSoW8LDjxafihWNySBJls1PmlS1Rot5XXnmlp95kD5uyrGz/eO+99zzlwNKDbDCzzbIg72OizKBbQDQTJkyQ0Mi6Hx7yiJP1DBCE49aaQ7lhImGPrrvu/fv1dxxI+JXpR5TY+ZKL/M+vHDzgkKOq9YM2HNYA6ZIfUZKhe0ZmWX75o7/h/EOtD46DZuB+eWVzLluiBB5ukzBopMPY8sInAcgPCh+8uIISZvsY+ypG5Bkq8OUWlG+h/c9EmUGPzJs3T0JYrQ4KHGPf62uvv5ZBTvqlMNJ25wn7QhMJDhXcZXXv3j2tEbsfUUJDbyL95S9/0eqHlxLtJEpblB9RwjQrDDGkyxhEOWzYMK0+wO6ll15Kd1tk/2VLlCAviFTUfoYJV9ByGMqr6667TmIWjzENDT/t9Apsj9v2F3v/QbRxSkyUIXsTA8bPmQBmgliK4aHKNkF7qA5qHAfNorItC7NAd1kY6OnsPf2IEg+eiQTZmlo/aJ1xLl3yI0rVzVq6e4P+u+eeezwmNoVOlLCfdG9+6Nu3b1ptN8gV+/dVe1Zgj91IEDelS3BJp/aZNXEgj1JxSkyUIXpz3bp1lp9FdTDgGBrkXOz07KLxMLrzDmtsbecR9huzCndZsFdM5wbOjyixndJEmjp1qlY/yBqDZKhMlHpPQD7oVjRCNp3OLAj9T/vrNewxTig8bqCmHN6V1DGFbbNw6hKnxEQZ0Jt4CC+//HKPDBEzSSxNojAGx84UdaDhGMt8EwmzA3dZHTp0SCt89yPKLl26mKienDRpklY/EGWQETMTpd4VmFECN7Wfr7766rRECZd00Fa7Z6KwxQwyh8JecrUsnlHq/ZGIX6kcCkBgHZVmb/r06dpAw6B7+umnjeCLmYM6qHF86aWXSgqJkLI8P6KEazoTCSYsav1glwfyTJeYKHV0oO0HWak4wlIjnYwSoqNFbyzSdofBPSCcMgeJlWDtoZYFOT683ccp8YwyRW/C3T2Wge43LAYEdmdE6fUag9G9VApabqaoduBpio2iDWq0B8sykE2q5EeUsG/MVVniLg8PJLZsqg8duUaTeJGkS0yUOjpYNbjNrFqc0iKUfS9sRBFyBFtew4ScwHPits3FJoZ8Og/RW2/mFxOlD654YCEjhLcY9aHFMWKzRC0/hEcW944ZeGgxkYYPH661CSKEO++8M+2yzI8ogQVi6USZsGQkv5Ja/aC9DXJqwUSp9wLIy62JrlqtamhvUXpu6X/BBtj9jLRp0yaUaVH6nAvrXyZKn/6AWcaxxx7rGQDQAkKeGPVMCu7J3FvBMGOLamlvNxEabxgDqwMbWs6gZX4qooQSKsoEe1J38LTDyDclAoOlS0yUOjp+O2bQ5/AnGXWaMmWKNp5QDlYFUT8jUdc70/yYKF2IQVaHeCsqmeAYMy+YSphIMM2AIN1dJjTqQfKhTOqz4OUFHke+MMwO2pKXiiixD3r7tvQkFrZ+kJ9hyecOAhYm1AATpRdl7Ld2b4zAuA4y9fHmlPoMVgCQfarjFju9sGyPW2KiVHoUHQ97M5Ci2vmQH3bt2jWtMFzJJqvDv/3tb57lN4TpUTmdwKyMwgF42nbBBRekXXajMamIEvJbGManMzsJCwZm1aeddpqGO/bOh7FZZKL0ooxx4+dxH/LeKF6+6HNslIBxuvqswDRoLXmCiltiovytRyHXwQzOLSvEIID7+6gIK9UAgrdp93IfJh5wOoAZZ64J5kZYxqqDGi+Ed955JzDrVESJvDBLCSP0DyoERuXumNtQSIRZwjFRetHFDB0vfbW/cYxVQBR7vmEWB/tb96QCW1CjIGJvi0r2DBPlb/jDnMG97MPAQlzsfDlBuI3ib7sHNt7Y2KWT7eDDfSAytxYU5cB+MkxKR5RQtkAZlO2SDjOTJUuWWOFq1bZjCRckO7XrzkRpI6F/o9/coXphNoT+ymWfPsyPevXq5RmrsFCIWq6ut6jkfjFREvZQIlSvUd3T8QifkE/fejA58gtsBTki6pHpzBIEsmDBAg8JgZCQJ7TtYVI6okResJuD/SMCo2WSMFtE/fyWiJipIuhVmMREmRolmJm5Tc/w8sUedqxiMkl46UKejf34sP5QX2xhdlBlUlahXZt4ooSJS7NmzTyDCTMaaLjznbAUdst9MCCxzxwehcIObpDuvffeay3n3Q8KZs7Y7QJxQ5gURJSoH2RT2P0RNszADyROQBgNhBOALFJ96PCCQsTEsLJPJsrUvQhsYCpkjwH7G9YOkFljq2EYnEGSeKlho4HbJSD6DsHlwngbSl3Twv4n0XG9SY4j7rjjDkG2hXhhUH//nhADmvawCjJX+f1kjkd/+tOfAmNVox4PPPCAoHgtgmaQnhIRg5mcyQpaNlt1I0K38sR9NOCt2NkzXpghnnj8CUHusjz304MiyKGFmDZtmiBljOd/vxN+cb2J3CzM3LjR3mBB294EeSSyYkTTTMNpM+qHON7koFeQEkjQg+cpjmRe4pqrrxFjxo7x/JfqBM1MPXG9aWYuKECYAD65JJqRCQr7K4gonGxIwWS10TmR5gD40EvLipGNWOiIox0W96jieiNeOW3DteJzu/sLcbxJBi/IpEeQjFygjuhbJLSZltlWjHjafCEosJpvS2l2KWbNmmXd73tBHE4ScIlNeNv2799fm81Qnxr5DaF32KUzroO8skLFCinrAqUTlD94w0PWCMH6cccd5+vhyG4TlkcXXXSR3LVzV0Z97jejhNkOEb/vziWUh/qhPqgfjOdRR8QAggsuuz7ub9wDE6wwMxy1AYU8o0QcdsQCQv9j1o1Y62F3dWXrZk3Fxj7GzBH1sGeUbuxhSlS/fn2J4GPoL1hDtGrVytqF5r7W/o28IDaJm0s1GzP1O9FLb8jIEM7A7njT3z/S1rKwCQ8/QqOCWFIN7kzqCyE+nNCm29Odqm5+RIllPRQCwK9ced0BQyb1sq/FUhC7hoIcMPjVsVCJEuZm7du318YX+jKsr9EoiRK4LV++3KpPFOMJ4hIst3MNt+HXn4V4jomyQInSHiyQoUKOB5mpTSqZfMPWEZppRIzMNvkRJXwXImH2h90ZCIXrljWGqSdmWpBJ5uKWq1CJEri590EDkzAB04Bt1ESJPPFyg6MXvJiyIUz0MTTpt99+eyjTLZQZh5R4osSgwdbEfHyyNaEBESCCIgLXQ1sdREh4ADAThX/B+++/P/RSL9WATkeU9j0wMu7Xr5+ltQeW6UgS9YPCCi68ELEyndNgO/9038CHZG1aH0JBF8YGM12++A9KLyxL1fERdq8/jPzPP/98DQv03dPPhPMMBaLEclgtG7aw8I+aa4IjaijfYGXhtl919x36C6Y/EJ2gj+Pm8CIMlolW5kBYTYGrBD3kNDbMJ5IjOoLybEqjZakg0hJQrpBtpHVMoR0spQo9gILIR0CZAgF9nTp1rGOSiznKlGzKxD1+yhyaUQrybK1lCeUY6kNmR1b9aDZsYUtEZtWBZrZWvVA/suu0FDA4Rw+ilk+mP9CPNCMV9CJybqUZk6AHO+e8yRxGUDRMC2M7c5LLCdQ7TCIbUUE2h2Lp0qWCrA3EjTfeaH2IfANvh5KKvD0JmgU61xJpWu0Kc79zU4oD9Nf69esF+gnjCc8CvqHAwXiiVYKA8hBjyv6uUaNGaGVUimKL8nSiibIoe6wEKh2WKEugakVTJM2aBcgNRMep+BBgoiy+Pst7jZko8w45F1hgCDBRFliHFGJ1mCgLsVe4TvlEgIkyn2gXaVlMlEXacVztyBBgoowMyvhmxEQZ377lloVDgIkyHE6JvoqJMtHdz40nBJgoeRgEIsBEGQgRXxBzBJgoY97BUTSPiTIKFDmPYkaAibKYey9PdWeizBPQXEzBIsBEWbBdUzgVY6IsnL7gmpQMAkyUJYN7UZXKRFlU3cWVNYAAE6UBUOOWJRNl3HqU25MpAkyUmSKWwOuZKBPY6dxkDQEmSg0O/uGHAIgSHmTIHZXzt5/3IOdPPmAEYoYAE2XMOtREcygEqZg0aZJGlBQywHL3ZaI8zpMRKDQEmCgLrUcKtD5qcC1UET4kc/UjWaBN5WoxAh4EmCg9kPAJRoARYAR0BJgodTz4FyPACDACHgSYKD2Q8AlGgBFgBHQEmCh1PPgXI8AIMAIeBJgoPZDwCUaAEWAEdASYKHU8+BcjwAgwAh4EmCg9kPAJRoARYAR0BJgodTz4FyPACDACHgSYKD2Q8AlGgBFgBHQEmCh1PPgXI8AIMAIeBJgoPZDwCUaAEWAEdASYKHU8+BcjwAgwAh4EmCg9kPAJRoARYAR0BJgodTz4FyPACDACHgT+B8uUarl3fCYqAAAAAElFTkSuQmCC;" parent="2" vertex="1">
                    <mxGeometry x="438" y="223" width="90" height="84.55" as="geometry"/>
                </mxCell>
                <mxCell id="5" style="edgeStyle=none;html=1;entryX=0;entryY=0.5;entryDx=0;entryDy=0;entryPerimeter=0;" parent="1" source="3" target="4" edge="1">
                    <mxGeometry relative="1" as="geometry"/>
                </mxCell>
                <mxCell id="3" value="CloudFront" style="sketch=0;points=[[0,0,0],[0.25,0,0],[0.5,0,0],[0.75,0,0],[1,0,0],[0,1,0],[0.25,1,0],[0.5,1,0],[0.75,1,0],[1,1,0],[0,0.25,0],[0,0.5,0],[0,0.75,0],[1,0.25,0],[1,0.5,0],[1,0.75,0]];outlineConnect=0;fontColor=#232F3E;gradientColor=#945DF2;gradientDirection=north;fillColor=#5A30B5;strokeColor=#ffffff;dashed=0;verticalLabelPosition=bottom;verticalAlign=top;align=center;html=1;fontSize=12;fontStyle=0;aspect=fixed;shape=mxgraph.aws4.resourceIcon;resIcon=mxgraph.aws4.cloudfront;" parent="1" vertex="1">
                    <mxGeometry x="130" y="240" width="78" height="78" as="geometry"/>
                </mxCell>
                <mxCell id="9" style="edgeStyle=none;html=1;entryX=0;entryY=0.5;entryDx=0;entryDy=0;entryPerimeter=0;" parent="1" source="8" target="3" edge="1">
                    <mxGeometry relative="1" as="geometry"/>
                </mxCell>
                <mxCell id="8" value="Users" style="sketch=0;outlineConnect=0;fontColor=#232F3E;gradientColor=none;fillColor=#232F3D;strokeColor=none;dashed=0;verticalLabelPosition=bottom;verticalAlign=top;align=center;html=1;fontSize=12;fontStyle=0;aspect=fixed;pointerEvents=1;shape=mxgraph.aws4.user;" parent="1" vertex="1">
                    <mxGeometry x="10" y="240" width="78" height="78" as="geometry"/>
                </mxCell>
                <mxCell id="11" style="edgeStyle=orthogonalEdgeStyle;html=1;elbow=vertical;curved=1;" parent="1" source="6" edge="1">
                    <mxGeometry relative="1" as="geometry">
                        <mxPoint x="50" y="230" as="targetPoint"/>
                        <Array as="points">
                            <mxPoint x="453" y="90"/>
                            <mxPoint x="50" y="90"/>
                        </Array>
                    </mxGeometry>
                </mxCell>
                <mxCell id="16" value="Response" style="edgeLabel;html=1;align=center;verticalAlign=middle;resizable=0;points=[];" parent="11" vertex="1" connectable="0">
                    <mxGeometry x="0.0505" relative="1" as="geometry">
                        <mxPoint as="offset"/>
                    </mxGeometry>
                </mxCell>
                <mxCell id="15" style="edgeStyle=orthogonalEdgeStyle;curved=1;html=1;startArrow=classic;startFill=1;elbow=vertical;" parent="1" source="14" edge="1">
                    <mxGeometry relative="1" as="geometry">
                        <mxPoint x="169" y="340" as="targetPoint"/>
                    </mxGeometry>
                </mxCell>
                <mxCell id="18" style="edgeStyle=orthogonalEdgeStyle;curved=1;html=1;entryX=0.5;entryY=0;entryDx=0;entryDy=0;entryPerimeter=0;startArrow=classic;startFill=1;elbow=vertical;" parent="1" source="17" target="12" edge="1">
                    <mxGeometry relative="1" as="geometry"/>
                </mxCell>
                <mxCell id="17" value="" style="sketch=0;pointerEvents=1;shadow=0;dashed=0;html=1;strokeColor=none;fillColor=#505050;labelPosition=center;verticalLabelPosition=bottom;verticalAlign=top;outlineConnect=0;align=center;shape=mxgraph.office.communications.offline_address_book;" parent="1" vertex="1">
                    <mxGeometry x="550" y="80" width="59" height="53" as="geometry"/>
                </mxCell>
                <mxCell id="19" value="&lt;i&gt;Retool&lt;br&gt;(Optional)&lt;/i&gt;" style="text;html=1;strokeColor=none;fillColor=none;align=center;verticalAlign=middle;whiteSpace=wrap;rounded=0;" parent="1" vertex="1">
                    <mxGeometry x="609" y="80" width="60" height="30" as="geometry"/>
                </mxCell>
            </root>
        </mxGraphModel>
    </diagram>
</mxfile>